<?xml version="1.0" standalone="no"?>
<!DOCTYPE svg PUBLIC "-//W3C//DTD SVG 20010904//EN"
 "http://www.w3.org/TR/2001/REC-SVG-20010904/DTD/svg10.dtd">
<svg version="1.0" xmlns="http://www.w3.org/2000/svg"
 width="962.000000pt" height="962.000000pt" viewBox="0 0 962.000000 962.000000"
 preserveAspectRatio="xMidYMid meet">
<metadata>
Created by potrace 1.14, written by Peter Selinger 2001-2017
</metadata>
<g transform="translate(0.000000,962.000000) scale(0.100000,-0.100000)"
fill="#000000" stroke="none">
<path d="M3585 9554 c49 -27 330 -273 322 -281 -2 -1 -28 6 -58 16 -57 21 -85
26 -344 63 -135 19 -201 23 -425 23 -259 0 -309 -4 -420 -38 l-35 -10 73 -34
c84 -38 193 -112 216 -147 14 -23 14 -24 -8 -30 -13 -3 -41 -8 -62 -11 -21 -4
-77 -13 -124 -21 -47 -8 -98 -16 -115 -19 -106 -18 -378 -97 -402 -117 -7 -6
-30 -12 -50 -15 -21 -3 -47 -11 -59 -18 -11 -7 -41 -19 -65 -25 -24 -6 -105
-44 -179 -85 -219 -118 -566 -278 -765 -353 -90 -34 -245 -82 -263 -82 -7 0
-11 -5 -10 -11 2 -6 -87 -41 -197 -78 -110 -37 -207 -70 -215 -73 -100 -37
-110 -40 -179 -54 -78 -16 -183 -42 -188 -47 -16 -16 37 -108 100 -174 60 -62
101 -93 202 -148 11 -6 31 -19 45 -27 54 -36 195 -78 277 -85 46 -3 83 -10 83
-14 0 -4 37 -6 83 -4 45 2 145 6 222 9 l140 6 -112 -73 c-62 -39 -113 -74
-113 -77 0 -3 91 -34 202 -70 111 -36 203 -70 204 -75 2 -6 -18 -27 -44 -48
-26 -20 -63 -52 -83 -70 -20 -17 -64 -57 -99 -87 -84 -72 -234 -203 -240 -210
-4 -4 -163 -149 -236 -215 -150 -137 -220 -206 -282 -280 l-75 -90 139 -5 139
-5 -70 -28 c-69 -28 -181 -79 -322 -147 l-73 -35 49 -51 c30 -31 82 -70 133
-97 l84 -46 178 -5 c98 -2 179 -6 181 -8 5 -5 -205 -318 -273 -406 -60 -78
-110 -158 -179 -282 -16 -30 -55 -101 -86 -157 -32 -56 -57 -103 -57 -106 0
-2 -22 -44 -50 -93 -27 -49 -50 -95 -50 -102 0 -10 35 -13 158 -11 86 0 184 5
217 10 82 13 112 17 170 24 28 4 117 27 199 51 81 25 151 43 154 39 3 -3 -33
-45 -80 -93 -66 -67 -109 -126 -192 -258 -58 -94 -106 -174 -106 -177 0 -3
-15 -38 -34 -79 -161 -349 -368 -979 -420 -1283 -9 -49 -18 -99 -20 -110 -37
-193 -51 -666 -33 -1124 5 -118 10 -222 12 -230 1 -9 6 -41 9 -71 36 -295 46
-341 108 -504 51 -135 155 -348 230 -471 10 -16 18 -32 18 -35 0 -3 -94 -53
-210 -110 l-210 -105 0 -132 0 -133 4537 0 4536 0 -124 119 c-68 65 -157 150
-197 188 -48 46 -73 77 -70 88 1 10 28 31 58 46 96 49 291 140 308 144 9 2 82
27 162 55 161 57 167 59 178 61 4 0 12 4 17 9 6 4 47 20 93 34 l82 28 0 2764
0 2764 -52 -28 c-292 -156 -420 -242 -556 -372 -54 -52 -113 -106 -130 -120
-17 -14 -32 -32 -34 -39 -2 -8 -14 -26 -28 -41 -56 -61 -90 -102 -90 -111 0
-5 -8 -17 -17 -27 -10 -10 -23 -27 -30 -38 -54 -86 -142 -247 -149 -274 -15
-60 -64 -185 -79 -203 -11 -12 -18 -23 -17 -25 5 -5 -32 -62 -40 -62 -4 0 -28
-19 -55 -42 -26 -23 -86 -66 -133 -97 -47 -30 -105 -71 -130 -92 -25 -20 -74
-54 -110 -75 -36 -20 -91 -57 -122 -81 -66 -50 -81 -54 -72 -17 4 14 21 98 40
187 l33 162 -3 310 c-2 275 -5 322 -25 420 -29 142 -76 333 -103 415 -29 91
-104 230 -159 297 -51 62 -54 86 -20 133 10 14 21 37 24 52 4 15 16 36 27 45
10 10 21 30 24 45 2 15 13 47 24 71 11 25 23 67 27 94 10 79 15 105 25 122 11
22 5 304 -9 396 -12 78 -36 194 -52 242 -5 18 -12 40 -14 50 -2 10 -18 52 -35
93 -17 41 -32 81 -33 88 0 6 -4 12 -8 12 -6 0 -16 25 -25 62 -2 9 -18 43 -36
75 -17 32 -44 84 -60 115 -15 32 -36 66 -47 77 -10 10 -22 30 -26 43 -4 12
-18 36 -31 51 -13 16 -24 32 -24 35 0 4 -13 21 -30 39 -16 17 -41 49 -55 70
-76 112 -338 371 -438 432 -20 12 -42 31 -47 42 -6 10 -16 19 -23 19 -7 0 -27
14 -45 30 -18 17 -38 30 -43 30 -5 0 -19 8 -29 18 -20 18 -64 44 -155 90 -50
26 -56 28 -75 31 -5 0 -10 7 -10 15 0 8 -21 21 -50 31 -27 9 -52 20 -55 25 -3
5 -22 14 -43 21 -20 6 -67 26 -104 44 -36 18 -101 45 -145 60 -43 16 -121 43
-173 62 -52 19 -111 38 -130 43 -19 4 -52 15 -72 24 -21 9 -38 14 -38 12 0 -3
-25 4 -56 14 -31 11 -70 21 -85 22 -16 1 -29 5 -29 9 0 6 -37 13 -125 23 -16
2 -64 11 -105 20 -41 10 -84 19 -95 22 -33 7 -125 7 -132 0 -3 -3 -1 -17 5
-31 15 -32 15 -65 2 -65 -30 0 -222 35 -330 61 -69 16 -217 45 -330 64 -184
32 -229 37 -440 41 -224 5 -234 4 -205 -12z m-2928 -1710 c-3 -3 -12 -4 -19
-1 -8 3 -5 6 6 6 11 1 17 -2 13 -5z m47 -13 c4 -5 -3 -7 -14 -4 -23 6 -26 13
-6 13 8 0 17 -4 20 -9z"/>
</g>
</svg>
